#
# Track frame offsets:
#       150
#       15590
#       31149
#
# Disc length: 622 seconds
#
# Submitted via: cddb-tool 0.4.7
#
#blues,classical,country,data,folk,jazz,newage,reggae,rock,soundtrack,misc
#CATEGORY=misc
DISCID=15026c03
DTITLE=Christina Stürmer / Ich Lebe
DYEAR=2003
DGENRE=Pop
TTITLE0=Ich Lebe (Radio Version)
TTITLE1=Ich Lebe (Unplugged)
TTITLE2=Ich Lebe (Karaoke Version)
EXTD=
EXTT0=
EXTT1=
EXTT2=
PLAYORDER=
